<svg id="b821dd0f-0f5c-452c-908a-000013e67e82" data-name="Capa 1" xmlns="http://www.w3.org/2000/svg" viewBox="0 0 136.24 183.89"><defs><style>.a0d43bd5-8514-46fc-ba9d-294ec08bb2eb{fill:#8d5043;}</style></defs><text x="-216.8" y="-71.27"/><path class="a0d43bd5-8514-46fc-ba9d-294ec08bb2eb" d="M302.64,233c-.46-1.69-1-3.38-1.37-5.1-.22-1-1.73-5.13-2.07-6.22-.26-.84-2.1-5.76-2.66-7.39-1.48-4.55-5.16-8.26-10.11-8.14-7.84-.16-15.68-.07-23.52-.07a15.16,15.16,0,0,0-5.53.65c-3.57,1.68-1,6.1-.24,8.79.5,1.76,3.35,10,3.73,11.15.54,1.64,2.73,11.52,3,12.91.43,2.29.89,9.73,1.5,11.1,1.39,3.09,3.65,4.56,6,4.49,4.72-.14,9.44,0,14.16,0h0c4.72,0,9.45-.19,14.16.08,2.9.16,5.76-3.2,5.73-5.8a37.83,37.83,0,0,0-.66-6.45C304.48,241.18,303.05,234.46,302.64,233Zm-27.5-3.13c-.46.46-.95-.13-1.11-.66l-3.63-10.52c-.87-2.16,1.86-2.85,3.43-2.67,1.56,0,3.12-.07,4.67,0,2.68.18,7.2-.46,7.18,3.41-.89,4-5.72,5.42-8.3,8.21C276.66,228.29,275.89,229.08,275.14,229.82ZM292.41,245c-.2,1.26-1.35,1.51-2.25,1.51l-11.67-.14c-.48,0-.76-.81-.84-1.25a5.69,5.69,0,0,1,.06-3.45c2.11-3.67,5.76-7.82,9.44-9.56,1.6-.92,3-.05,3.39,1.74S292.75,242.9,292.41,245ZM251.77,212.9c-4-5.89-17.55-6.16-17.55-6.17-3,0-6.16-.41-9.05.8-2.53,1.06-5,2.17-6.37,4.9-3.14,5.61-2.2,13.67.17,18.15,3.56,7.41,12.55,8.4,19.91,8,.38,0,.87-.15,1.06.33s-.13.7-.29,1.06c-2.8,4.51-5.17,9.3-7.7,14-.56,1.05.22,1.15,1,1.16h12a1.44,1.44,0,0,0,1.35-.74c.87-1.29,1.48-2.72,2.27-4,2.13-4.38,4.66-8.55,6.72-13a17.41,17.41,0,0,0,1.38-5.13,19.81,19.81,0,0,0-1.25-12.28A38.34,38.34,0,0,0,251.77,212.9Zm-10,15.69c-1.2,0-2.39,0-3.59,0v0c-1.12,0-2.24,0-3.36,0a5.7,5.7,0,0,1-5.06-5.17c0-1.57-.38-3.22.68-4.63.82-1.1,1.59-2.25,3.25-2.13a18,18,0,0,0,2.75,0c3-.26,4.6,1.57,5.81,3.92a13.29,13.29,0,0,1,1.68,5.77C244,228,243.46,228.54,241.78,228.59Zm110.6,14.32c-.32-1.73-1.74-8.45-2.15-10-.46-1.69-1-3.38-1.38-5.1-.22-1-1.72-5.13-2.06-6.22-.26-.84-2.11-5.76-2.67-7.39-1.47-4.55-5.15-8.26-10.1-8.14-7.84-.16-15.68-.07-23.52-.07a15.16,15.16,0,0,0-5.53.65c-3.57,1.68-1,6.1-.24,8.79.5,1.76,3.35,10,3.72,11.15.55,1.64,2.74,11.52,3,12.91.43,2.29.9,9.73,1.51,11.1,1.39,3.09,3.65,4.56,6,4.49,4.72-.14,9.44,0,14.16,0h0c4.72,0,9.45-.19,14.15.08,2.91.16,5.76-3.2,5.74-5.8A38.86,38.86,0,0,0,352.38,242.91Zm-29.65-13.09c-.47.46-1-.13-1.12-.66L318,218.64c-.87-2.16,1.85-2.85,3.43-2.67,1.56,0,3.12-.07,4.67,0,2.67.18,7.19-.46,7.18,3.41-.89,4-5.73,5.42-8.3,8.21ZM340,245c-.2,1.26-1.36,1.51-2.25,1.51l-11.67-.14c-.48,0-.76-.81-.84-1.25a5.62,5.62,0,0,1,.06-3.45c2.11-3.67,5.75-7.82,9.44-9.56,1.6-.92,2.95-.05,3.38,1.74S340.34,242.9,340,245Z" transform="translate(-216.8 -71.27)"/></svg>